<svg id="Layer_1" data-name="Layer 1" xmlns="http://www.w3.org/2000/svg" viewBox="0 0 1024 1901"><defs><style>.cls-1{fill:#bc9f75;}</style></defs><title>Logo</title><path class="cls-1" d="M516.5,443.28V37.5H405.18V443.28h-97v53.86H613.45V443.28Zm-55.66-16.16-37.71-37.71,37.71-37.7,37.7,37.7Zm0-93.37-37.71-37.7,37.71-37.71,37.7,37.71Zm0-93.36-37.71-37.71L460.84,165l37.7,37.7Zm0-93.37-37.71-37.7,37.71-37.71,37.7,37.71Z"/><path class="cls-1" d="M407,1454.13a191.25,191.25,0,0,0,104.14,14.37V1526a84.89,84.89,0,0,0,43.09-79,141.59,141.59,0,0,0,68.23-61c3.32,10.45,19.8,65.93-10.77,122.1-21.66,39.77-55.14,58.26-68.23,64.63-9.91,4.32-49.58,20.21-93.37,3.59A118,118,0,0,1,407,1547.5Z"/><path class="cls-1" d="M407,1583.41A151.48,151.48,0,0,0,511.11,1605V1705.5L407,1863.5Z"/><circle class="cls-1" cx="204.08" cy="551.01" r="28.73"/><circle class="cls-1" cx="775.04" cy="723.37" r="28.73"/><circle class="cls-1" cx="717.59" cy="823.92" r="28.73"/><circle class="cls-1" cx="803.77" cy="1078.88" r="25.14"/><circle class="cls-1" cx="196.9" cy="1301.52" r="28.73"/><circle class="cls-1" cx="308.22" cy="1420.02" r="28.73"/><circle class="cls-1" cx="717.59" cy="1563.66" r="46.68"/><circle class="cls-1" cx="652.95" cy="1646.25" r="25.14"/><circle class="cls-1" cx="268.72" cy="267.32" r="46.68"/><path class="cls-1" d="M511.11,1181.22V1069.9H464.43a197.83,197.83,0,0,1-97-53.87c-9,2-48.57,11.69-75.41,50.28-24.81,35.68-22.49,72.67-21.54,82.59.77,9.93,5.57,58,46.68,93.36,31.63,27.25,66.67,31.43,79,32.32h68.23c16.49-3.52,32.36,2.46,39.5,14.37,5.18,8.65,4.21,17.84,3.59,21.54-2.23,13.42-12.72,23.65-25.14,25.14-14.68,1.76-29.38-9-32.32-25.14a257,257,0,0,1-100.54-7.18c-1.41,49.65,25.12,95.76,68.22,118.5,61.79,32.6,122.18-1.52,125.69-3.59,43.88-24.09,70.53-70.27,68.23-118.5C609,1244,568.12,1195.12,511.11,1181.22ZM291,1159l2.13-30.28c10.65,4.55,15.57,12.5,15.31,16.29S302.18,1156,291,1159ZM413.26,1390.7l-21.91-21c10.31-5.27,19.57-4,22.31-1.34S418.09,1380.18,413.26,1390.7ZM407,1116.58V1174a28.73,28.73,0,0,1,0-57.46ZM344.91,1049c4.91,10.48,3.28,19.7.56,22.34s-12,4-22.32-1.18Zm-8.55,180.52-19.95-22.87c10.74-4.33,19.85-2.21,22.34.65S342.11,1219.46,336.36,1229.51Zm-7.77-56.77c-1.46-3.5.67-12.61,9.31-20.32l11.67,28C338,1181.15,330.05,1176.24,328.59,1172.74ZM340.42,1133c-8.14-8.23-9.7-17.45-8-20.85s9.93-7.81,21.42-6.39Q347.12,1119.34,340.42,1133Zm32.68,83.92c-3.61-1.18-9.1-8.75-9.29-20.33l28.83,9.49C385.62,1215.25,376.7,1218.07,373.1,1216.88Zm8.77,32.43c4-10.86,11.71-16.18,15.5-16.1s11.27,5.69,14.85,16.7Zm51.58-28.43c-3.79.15-11.6-5-15.83-15.78l30.33-1.23C444.6,1215,437.24,1220.72,433.45,1220.88Zm13,24.7c4.11-10.82,11.85-16.07,15.64-16s11.22,5.79,14.7,16.84Zm42.75-28.4c-3.74-.64-10.3-7.31-12.2-18.73l29.92,5.11C501.33,1213.7,492.93,1217.82,489.19,1217.18ZM447.28,1378c-3.36-1.75-7.57-10.11-5.88-21.56l26.92,14C459.91,1378.37,450.65,1379.71,447.28,1378Zm14,40.93c3.42-11.06,10.82-16.78,14.61-16.91s11.56,5.09,15.72,15.89Zm41.54-40.14c-3.73.7-12.19-3.28-17.95-13.32l29.83-5.62C513,1371.27,506.59,1378,502.86,1378.75Zm15.47-116L491.28,1249c8.35-8,17.59-9.45,21-7.73S519.91,1251.32,518.33,1262.79Zm6.46,81.87q9.78-11.6,19.58-23.18c5.91,10,5.19,19.28,2.74,22.18S535.59,1348.82,524.79,1344.66Zm6.51-74.93c11.57-.42,19.41,4.67,20.79,8.21s-1,12.59-9.81,20.09Zm11.78,124.66c-5-10.42-3.53-19.65-.85-22.33s11.93-4.17,22.34.89Zm2.85-150.66c-2.73-2.63-4.41-11.84.44-22.35l21.87,21C557.92,1247.68,548.66,1246.36,545.93,1243.73Zm22.63,62.78c-.21-3.79,4.82-11.67,15.53-16.08q.85,15.15,1.72,30.3C574.67,1317.56,568.78,1310.3,568.56,1306.51Z"/><path class="cls-1" d="M661.93,893.94c-56.92-26.74-101.11,2.41-158,35.91-9.66,5.69-21.11,13.8-39.5,0-14.37-10.77-8-34.79,3.59-46.68,28.35-29.15,47.88-52.67,75.41-82.59,2.22.81,71.81,12.32,93.36-21.55,25.14-39.5,87.47-138.15,35.91-175.95-53.86-39.51-79-10.78-111.32,3.59-13.25,5.89-50.27,25.13-50.27,25.13V538.44H407v255c-52.39,48.1-65.84,121.82-35.91,176,32.31,58.44,100.41,67.39,107.73,68.23,61.05,3.59,79-25.14,100.55-43.09,17.66-14.72,43.09-3.59,46.68,14.36,5.36,26.82-25.14,53.87-46.68,28.73l-43.09,25.14v75.41c5.78,3.12,62.29,25.17,122.09-3.59,43.82-21.08,72.72-65.28,75.41-114.91C734.79,980.65,710.49,916.76,661.93,893.94ZM514.66,792.67l-23.27,19.5c-4.12-10.82-1.81-19.89,1.09-22.33S504.72,786.72,514.66,792.67ZM497.6,739.72c6,9.93,5.29,19.26,2.86,22.17S489,767.12,478.14,763ZM435.83,871.55q-5.94,14-11.86,27.94c-8.59-7.77-10.66-16.89-9.18-20.38S424.27,870.77,435.83,871.55Zm-57.36,51.2q-.24-15.16-.47-30.35c11,3.63,16.58,11.13,16.64,14.92S389.35,918.79,378.47,922.75Zm39.38-104.16c6.39,9.65,6.14,19,3.83,22s-11.25,5.73-22.25,2.1Zm5.82,177.22-21.45-21.48c10.43-5.05,19.66-3.54,22.34-.86S428.73,985.39,423.67,995.81Zm-8.8-52.65c-1.56-3.45.28-12.63,8.67-20.6l12.55,27.63C424.56,951.26,416.44,946.62,414.87,943.16ZM464.29,780c4.34,10.73,2.22,19.84-.64,22.34s-12.17,3.37-22.22-2.38Zm-12.6,50.74c2.28-3,11.2-5.83,22.23-2.3q-9.1,12.14-18.2,24.29C449.24,843.1,449.41,833.75,451.69,830.71Zm7.16,149c-3.53-1.39-8.6-9.25-8.14-20.82L479,970C471.45,978.78,462.39,981.11,458.85,979.73Zm207.37-46,20.1,22.76c-10.71,4.39-19.84,2.33-22.35-.52S660.54,943.82,666.22,933.73Zm-2.38,58.5c.65,3.74-3.45,12.15-13.58,17.76q-2.6-15-5.17-29.91C656.51,982,663.19,988.5,663.84,992.23ZM531.22,953.65c-3.1,2.19-12.45,2.1-21.87-4.64l24.79-17.52C537.36,942.61,534.32,951.46,531.22,953.65ZM564,968.72c-2.05-11.4,1.89-19.88,5.2-21.74s12.6-.81,21.27,6.87ZM598.53,930c-3.79.11-11.53-5.14-15.63-16l30.34-.86C609.76,924.22,602.33,929.91,598.53,930Zm7.87,21.43c9.65-6.39,19-6.13,22-3.83s5.72,11.26,2.1,22.25Zm-35.58,139.83c-3.63-1.08-9.34-8.49-9.86-20.06l29.09,8.66C583.29,1089.28,574.46,1092.35,570.82,1091.27Zm11.9,35.45c4.36-10.73,12.22-15.79,16-15.6s11.08,6.06,14.3,17.18Zm44.61-36.09c-3.34,1.8-12.62.58-21.14-7.25L632.91,1069C634.76,1080.42,630.67,1088.83,627.33,1090.63ZM643.81,1055l17.78-24.6c6.64,9.48,6.63,18.84,4.41,21.91S654.9,1058.32,643.81,1055Zm23.46,51.6c-4.07-10.84-1.72-19.89,1.2-22.32s12.26-3,22.16,2.94Zm19.8-87.25c-.26-3.79,4.67-11.74,15.32-16.28q1.05,15.13,2.11,30.28C693.32,1030.31,687.34,1023.13,687.07,1019.34Z"/><path class="cls-1" d="M330.66,656.69a9.66,9.66,0,0,1-10.05,15.36c-22.22-6-46.88-7.31-59.07,8.23s-12.53,40.49,0,61.05c2.22,2.79,25.93,33.66,14.36,71.82-9.28,30.62-34.71,44.23-39.5,46.68-6.53,1.14-37.83,5.9-68.23-14.37-5.51-3.67-31.46-21.82-39.5-57.45-2.44-8.15-15.23-53.72,10.78-100.55,24.63-44.34,66.56-58.31,75.41-61,6.66-1.54,72.59-15.7,111.32,25.13C327.62,653.08,329.13,654.78,330.66,656.69Z"/><path class="cls-1" d="M236.4,1082.47c-1.85,26.72-22.32,47.82-46.68,50.27-27.86,2.8-55-19.39-57.46-50.27,1.51-41.15,27.44-76.93,64.64-89.78,29.1-10,61.65,1,84,12.18a10.49,10.49,0,0,1-2.64,19.7c-12,2.47-24.42,7.53-31.11,18.4A74,74,0,0,0,236.4,1082.47Z"/><path class="cls-1" d="M239.75,1458c7.2-4.36,15.76,2.8,13,10.74-3.35,9.51-2.8,19.34,1.64,26.68,7.5,12.41,23.94,14.1,27.95,14.33a9.83,9.83,0,0,1,1.63.22c31.25,7.21,54.08,32.45,56.6,60.86,3.14,35.33-25.55,70.74-66.66,75.25a9.56,9.56,0,0,1-3.11-.18c-46-10.36-79.45-50.44-81-96.62C188.42,1511.79,208.33,1477,239.75,1458Z"/><path class="cls-1" d="M681.68,1197.38c7.81-34.38,40.63-55.88,71.82-50.28,26.45,4.76,53.51,28.32,50.27,57.46-3.59,32.32-15.25,57-61,71.82-39.67,12.83-89.35-7.51-116.1-52.2a4.75,4.75,0,0,1,6.25-6.62c10.22,5.08,21.56,5.69,30.84,1.36C676.13,1213.14,680.66,1200.5,681.68,1197.38Z"/><path class="cls-1" d="M767.86,389.41c0-32.76,32.55-56.6,64.64-57.45,33.37-.89,65.63,23.44,68.23,57.45,3.76,49.16-30.19,93.61-75.41,111.32-32.13,12.59-80,6.13-116.17-11.46-11-5.36-8.5-21.64,3.55-23.91,13.85-2.61,28.49-7.82,37.21-18.49C769.8,422.51,767.86,418.14,767.86,389.41Z"/><path class="cls-1" d="M662,388.18a5.42,5.42,0,0,1-6.58-8.08c6.72-9.61,8.54-21.23,4.7-30.19-5-11.59-19.74-15.88-35.91-18-37.55-4.8-55.34-49.53-46.68-82.59,7.29-27.83,33.63-53.49,64.64-50.28,57.31,5.93,89.07,68.71,79,118.5C714.9,348.61,692.4,374.89,662,388.18Z"/></svg>